<svg xmlns="http://www.w3.org/2000/svg" width="129" height="137" fill="none" viewBox="0 0 129 137"><g clip-path="url(#a)"><path fill="#131313" d="M106.52 95.9a21 21 0 0 1-1.13-2.76c.64-1.72-.75-2.08-.75-2.08.68-1.11-1.3-1.55-1.3-1.55-.05-.42-.82-1.15-.82-1.15-.06-.83-.94-.98-1.23-1.22s-.31-1.2-.31-1.2c-.13-3-1.13-2.42-1.68-3.07-.55-.66-3.82-6.96-7.9-12.93-4.07-5.98-4.8-6.54-6.53-8.51-1.73-1.98-4.7-1.8-4.7-1.8s-.48-.5-.83-.92-.83-.4-.83-.4l-.1-.52s.36-.25.46-.78c.1-.54-.26-1.17-.24-1.37s.4-1.18 1.05-3.21q.15-.46.2-1.1c.44-1.27.42-2.69.05-4a8.3 8.3 0 0 0-5.8-5.61c-2.46-.63-4.97.14-7.4-.59-.31-.1-.67-.2-.97-.06-.2.1-.33.3-.44.49a3.7 3.7 0 0 0-.23 2.86q.27.74.8 1.31c-.6.75-1.09 1.5-1.19 1.74-.2.49.15 1.06.15 1.06s-1.64 1.02-2.35 1.4c-.72.4-.78.8-.48 1.19.3.4.9.8.9.8s-.46.48-.52.84c-.06.35.15.81.15.81s-.29.36-.33.7.21.61.21.61-.15.76-.18 1.43c-.04.66-.08.84.45 1.56.52.73 2.96 1.96 3.53 2.3.56.35 1.08.63 1.34 1.2.25.58 1.08 1.9 1.08 1.9v3.1l-2.68 1.26v-.1a9.8 9.8 0 0 0-3.64-7.49C54 63.46 47.16 70.53 47.16 70.53c4.23-5.37 11.23-9.7 14.02-11.3a10 10 0 0 0-8.12-1 37 37 0 0 0-5.9 11.8s.16-4.52 4.75-11.38A9.9 9.9 0 0 0 46 67.8a9.9 9.9 0 0 0 6.62 9.17l.1.1c.22.3.36.87.5 1.44.15.58.38 1.3 1.73 3.37 1.36 2.07 4 3.12 4 3.12s-.8.43-1.15 1.6c-.34 1.19.15 4.29.32 4.95.16.66.64 1.32 1.21 1.82s.89.99 1.88 2.97c1 1.98 2.9 5.37 4.56 7.28 1.67 1.9 3.6 6.78 3.6 6.78v.44l.03.49s-.2.16-.48.42c-.3.28-.13.74-.35 1.19s-1.68 1.28-2.57 1.9c-.89.6-2.63 1.14-2.63 1.14-3.12-.31-4.88.55-5.34 1.05-.47.5-.19 1.24-.19 1.24.88 1.6 2.15 2.92 5.16 3.12 3 .2 5.15-.29 6.58-.42 1.44-.13 4.56.05 7.16.12 2.6.08 3.08-.48 3.08-.48l-.1-1.6c-.04-.42-.22-.55-.22-.55a14 14 0 0 0-1.35-5.5c-.51-.97-1.5-.67-1.5-.67l-.8-1.34c-.5-.84-2.74-7.19-2.96-8.1s-.6-3.05-.6-3.05c1.77-.2 4.3 1.16 4.3 1.16.24 1.29 1.83 4.57 2.6 6.35.76 1.79 2.77 5.73 3.4 7.23s1.02 4.62 1.02 4.62l-.17.42.02 1.27s-.54.27-.71.52c-.18.24-.31 2-.31 2-1.97 1.46-3.28 3.99-3.81 4.6s-3.04 2.19-3.93 2.93a2.8 2.8 0 0 0-.95 2.52c.14.57 2.7 2.69 7.57 2.58 4.86-.12 6.1-2.46 6.35-2.73.24-.27 1.02-.4 1.02-.4 4.38-1.18 4.75-2.25 4.75-2.25l-.02-1.11-.34-.33s.02-2-.13-2.92c-.15-.93-.83-3.32-1.09-4.05-.26-.72-1.9-1.1-1.9-1.1l-.55-1.37-.53-6.82c-.27-3.6-.33-7.44-.33-7.44 1.89 1.59 4.1 2.18 8.26 2.05 4.17-.12 6.3-1.5 8.55-4.28s1.68-6.41 1.15-7.36M48.5 73.11s8.62.95 16.96-5.1l.02 1.19s-7.37 5.42-16.98 3.91"/></g><defs><clipPath id="a"><path fill="#fff" d="M0 0h138.36v136.39H0z"/></clipPath></defs></svg>