<svg xmlns="http://www.w3.org/2000/svg" width="32" height="32" fill="none" overflow="visible" preserveAspectRatio="none" style="display:block" viewBox="0 0 32 32"><path fill="#33dbdb" d="M28.23 12.85c-.47-.49-.96-1-1.14-1.44-.17-.41-.18-1.09-.19-1.75-.02-1.22-.04-2.6-1-3.56s-2.34-.98-3.56-1c-.66-.01-1.34-.02-1.75-.19-.44-.18-.95-.67-1.44-1.14C18.29 2.94 17.3 2 16 2s-2.28.94-3.15 1.77c-.49.47-1 .96-1.44 1.14-.41.17-1.09.18-1.75.19-1.22.02-2.6.04-3.56 1s-.97 2.34-1 3.56c-.01.66-.02 1.34-.19 1.75-.18.44-.67.95-1.14 1.44C2.94 13.72 2 14.7 2 16s.94 2.28 1.77 3.15c.47.49.96 1 1.14 1.44.17.41.18 1.09.19 1.75.02 1.22.04 2.6 1 3.56s2.34.98 3.56 1c.66.01 1.34.02 1.75.19.44.18.95.67 1.44 1.14.87.83 1.85 1.77 3.15 1.77s2.28-.94 3.15-1.77c.49-.47 1-.96 1.44-1.14.41-.17 1.09-.18 1.75-.19 1.22-.02 2.6-.04 3.56-1s.98-2.34 1-3.56c.01-.66.02-1.34.19-1.75.18-.44.67-.95 1.14-1.44C29.06 18.29 30 17.3 30 16s-.94-2.28-1.77-3.15m-1.44 4.91c-.6.63-1.22 1.27-1.55 2.07a7 7 0 0 0-.34 2.48c-.01.87-.03 1.79-.41 2.18-.4.38-1.3.4-2.18.41a7 7 0 0 0-2.48.34c-.8.33-1.44.95-2.07 1.55S16.5 28 16 28s-1.14-.61-1.76-1.21a7 7 0 0 0-2.07-1.55 7 7 0 0 0-2.48-.34c-.87-.01-1.79-.03-2.17-.41-.4-.4-.4-1.3-.42-2.18a7 7 0 0 0-.34-2.48c-.33-.8-.95-1.44-1.55-2.07S4 16.5 4 16s.62-1.14 1.21-1.76a7 7 0 0 0 1.55-2.07 7 7 0 0 0 .34-2.48c.01-.87.03-1.79.42-2.17.38-.4 1.3-.4 2.17-.42a7 7 0 0 0 2.48-.34c.8-.33 1.44-.95 2.07-1.55S15.5 4 16 4s1.14.62 1.76 1.21c.62.6 1.27 1.22 2.07 1.55a7 7 0 0 0 2.48.34c.87.01 1.79.03 2.18.42.38.38.4 1.3.41 2.17.01.85.03 1.72.34 2.48.33.8.95 1.44 1.55 2.07S28 15.5 28 16s-.61 1.14-1.21 1.76M17.5 22.5a1.5 1.5 0 1 1-3 0 1.5 1.5 0 0 1 3 0m3.5-9c0 2.17-1.72 4-4 4.41V18a1 1 0 0 1-2 0v-1a1 1 0 0 1 1-1c1.65 0 3-1.12 3-2.5S17.65 11 16 11s-3 1.13-3 2.5v.5a1 1 0 0 1-2 0v-.5c0-2.48 2.24-4.5 5-4.5s5 2.02 5 4.5"/></svg>