<svg xmlns="http://www.w3.org/2000/svg" width="14" height="14" fill="none" overflow="visible" preserveAspectRatio="none" style="display:block" viewBox="0 0 14 14"><path fill="#33dbdb" d="m12.64 9.11-1.56-.78a2.6 2.6 0 0 1-1.45-2.35v-1.6a.44.44 0 0 0-.44-.44A2.63 2.63 0 0 1 6.56 1.3a.44.44 0 0 0-.7-.35l-4.21 3.2h-.01a.87.87 0 0 0-.07 1.3l6.22 6.22a.4.4 0 0 0 .3.13h4.16a.87.87 0 0 0 .88-.87V9.9a.9.9 0 0 0-.49-.79m-.39 1.83H8.28l-6.1-6.1.71-.53 2.12 2.12a.44.44 0 1 0 .62-.61L3.6 3.78l2.18-1.66A3.5 3.5 0 0 0 8.75 4.8V6a3.5 3.5 0 0 0 1.93 3.12l1.57.79zm-8.38-.88H1.75a.44.44 0 0 1 0-.87h2.12a.44.44 0 1 1 0 .87m2.19 1.31a.44.44 0 0 1-.44.44h-3a.44.44 0 0 1 0-.87h3a.44.44 0 0 1 .44.44"/></svg>